<svg width="500" height="500" viewBox="0 0 500 500" fill="none" xmlns="http://www.w3.org/2000/svg">
<rect width="500" height="500" rx="20" fill="#4E73DF"/>
<path d="M19.855 295V211.05H45.155C57.805 211.05 67.1967 213.427 73.33 218.18C79.54 222.933 82.645 230.14 82.645 239.8C82.645 249.383 79.6933 256.59 73.79 261.42C67.9633 266.25 59.2233 268.665 47.57 268.665H27.905V254.865H45.5C52.7067 254.865 57.9583 253.677 61.255 251.3C64.5517 248.847 66.2 245.013 66.2 239.8C66.2 234.587 64.5517 230.792 61.255 228.415C57.9583 226.038 52.7067 224.85 45.5 224.85H35.955V295H19.855ZM94.7622 295V211.05H151.802V224.735H110.862V244.745H149.502V257.97H110.862V281.315H151.802V295H94.7622ZM190.608 295V225.195H163.698V211.05H234.193V225.195H207.283V295H190.608ZM296.401 295V211.05H312.501V295H296.401ZM246.261 295V211.05H262.361V295H246.261ZM254.311 258.43V244.285H304.451V258.43H254.311ZM363.5 296.15C352.307 296.15 343.797 293.582 337.97 288.445C332.22 283.308 329.345 275.795 329.345 265.905V211.05H345.445V262.8C345.445 269.623 346.825 274.53 349.585 277.52C352.422 280.51 357.06 282.005 363.5 282.005C369.94 282.005 374.54 280.51 377.3 277.52C380.137 274.53 381.555 269.623 381.555 262.8V211.05H397.655V265.905C397.655 275.795 394.78 283.308 389.03 288.445C383.28 293.582 374.77 296.15 363.5 296.15ZM414.494 295V211.05H441.634C452.904 211.05 461.337 212.775 466.934 216.225C472.607 219.598 475.444 224.697 475.444 231.52C475.444 236.58 473.987 240.758 471.074 244.055C468.237 247.275 464.25 249.383 459.114 250.38V250.61C465.477 251.53 470.269 253.753 473.489 257.28C476.785 260.73 478.434 265.368 478.434 271.195C478.434 279.092 475.405 285.033 469.349 289.02C463.369 293.007 454.399 295 442.439 295H414.494ZM442.439 281.545C449.185 281.545 454.13 280.587 457.274 278.67C460.417 276.753 461.989 273.763 461.989 269.7C461.989 265.56 460.417 262.57 457.274 260.73C454.13 258.813 449.185 257.855 442.439 257.855H422.544V244.745H442.439C448.342 244.745 452.635 243.94 455.319 242.33C458.002 240.643 459.344 237.998 459.344 234.395C459.344 230.868 458.002 228.338 455.319 226.805C452.712 225.272 448.419 224.505 442.439 224.505H430.594V281.545H442.439Z" fill="white"/>
</svg>
